<?xml version="1.0" encoding="utf-8"?>
<!-- Generator: Adobe Illustrator 22.1.0, SVG Export Plug-In . SVG Version: 6.00 Build 0)  -->
<svg version="1.1" id="Layer_1" xmlns="http://www.w3.org/2000/svg" xmlns:xlink="http://www.w3.org/1999/xlink" x="0px" y="0px"
	 viewBox="0 0 3840 3840" style="enable-background:new 0 0 3840 3840;" xml:space="preserve">
<style type="text/css">
	.st0{fill:#FFFFFF;}
	.st1{fill:#FD9F28;}
	.st2{fill:#FEC93E;}
	.st3{fill:#616161;}
</style>
<circle class="st0" cx="1920" cy="1920" r="1549.7"/>
<path id="Back" class="st1" d="M2077.8,619.7c-157.7-80.8-451.3,147.6-617.1,340.5c-158.4,184.4-273.5,418.4-318.5,741.6
	c-106.9,765.7,71.7,1184.8,291,1329.6c240.6,158.9,614.8,191.8,874.2,16.1c106.7-72.3,274.6-442.2,327.3-966.9
	c9.6-95.3,13.2-212.4-10-345.4c-30.4-174.4-85.4-303.3-146.8-398.6c-66.6-103.4-137.3-140-203.2-243.9
	C2162.5,915.6,2195.9,680.3,2077.8,619.7z"/>
<path id="Middle" class="st2" d="M2029.3,844.9c-138.7-71.1-396.9,129.8-542.7,299.4c-139.3,162.1-240.5,367.9-280.2,652
	c-94,673.2,63.1,1041.7,255.9,1169.1c211.7,139.8,540.7,168.7,768.7,14.2c93.8-63.6,241.5-388.8,287.9-850.1
	c8.4-83.8,11.5-186.8-8.8-303.7c-26.8-153.4-75.1-266.7-129-350.5c-58.5-91-120.8-123.1-178.7-214.4
	C2103.9,1105,2133.1,898.2,2029.3,844.9z"/>
<ellipse class="st0" cx="1733.5" cy="2141.2" rx="358.1" ry="668.5"/>
<path id="Back_copy" class="st3" d="M1625,3120.5c76.5,27.1,157,41.8,238.3,43.3c0-71.8-43.7-128.5-99.1-142.3
	c-45.4-11.4-107.2,3.6-130.5,48.3C1626,3084.8,1623.2,3102,1625,3120.5z"/>
</svg>
